%TF.GenerationSoftware,KiCad,Pcbnew,8.0.6*%
%TF.CreationDate,2025-02-04T12:31:12+00:00*%
%TF.ProjectId,PCB,5043422e-6b69-4636-9164-5f7063625858,rev?*%
%TF.SameCoordinates,Original*%
%TF.FileFunction,Legend,Top*%
%TF.FilePolarity,Positive*%
%FSLAX46Y46*%
G04 Gerber Fmt 4.6, Leading zero omitted, Abs format (unit mm)*
G04 Created by KiCad (PCBNEW 8.0.6) date 2025-02-04 12:31:12*
%MOMM*%
%LPD*%
G01*
G04 APERTURE LIST*
%ADD10C,0.100000*%
%ADD11C,0.254000*%
%ADD12C,0.350000*%
G04 APERTURE END LIST*
D10*
X149103884Y-94491466D02*
X149865789Y-94491466D01*
X149484836Y-94872419D02*
X149484836Y-94110514D01*
D11*
X142211190Y-102527651D02*
X142211190Y-103374318D01*
X141908809Y-102043842D02*
X141606428Y-102950984D01*
X141606428Y-102950984D02*
X142392619Y-102950984D01*
X142815952Y-102225270D02*
X142876428Y-102164794D01*
X142876428Y-102164794D02*
X142997381Y-102104318D01*
X142997381Y-102104318D02*
X143299762Y-102104318D01*
X143299762Y-102104318D02*
X143420714Y-102164794D01*
X143420714Y-102164794D02*
X143481190Y-102225270D01*
X143481190Y-102225270D02*
X143541667Y-102346222D01*
X143541667Y-102346222D02*
X143541667Y-102467175D01*
X143541667Y-102467175D02*
X143481190Y-102648603D01*
X143481190Y-102648603D02*
X142755476Y-103374318D01*
X142755476Y-103374318D02*
X143541667Y-103374318D01*
X144327857Y-102104318D02*
X144448810Y-102104318D01*
X144448810Y-102104318D02*
X144569762Y-102164794D01*
X144569762Y-102164794D02*
X144630238Y-102225270D01*
X144630238Y-102225270D02*
X144690714Y-102346222D01*
X144690714Y-102346222D02*
X144751191Y-102588127D01*
X144751191Y-102588127D02*
X144751191Y-102890508D01*
X144751191Y-102890508D02*
X144690714Y-103132413D01*
X144690714Y-103132413D02*
X144630238Y-103253365D01*
X144630238Y-103253365D02*
X144569762Y-103313842D01*
X144569762Y-103313842D02*
X144448810Y-103374318D01*
X144448810Y-103374318D02*
X144327857Y-103374318D01*
X144327857Y-103374318D02*
X144206905Y-103313842D01*
X144206905Y-103313842D02*
X144146429Y-103253365D01*
X144146429Y-103253365D02*
X144085952Y-103132413D01*
X144085952Y-103132413D02*
X144025476Y-102890508D01*
X144025476Y-102890508D02*
X144025476Y-102588127D01*
X144025476Y-102588127D02*
X144085952Y-102346222D01*
X144085952Y-102346222D02*
X144146429Y-102225270D01*
X144146429Y-102225270D02*
X144206905Y-102164794D01*
X144206905Y-102164794D02*
X144327857Y-102104318D01*
X145295476Y-102527651D02*
X145295476Y-103374318D01*
X145295476Y-102648603D02*
X145355953Y-102588127D01*
X145355953Y-102588127D02*
X145476905Y-102527651D01*
X145476905Y-102527651D02*
X145658334Y-102527651D01*
X145658334Y-102527651D02*
X145779286Y-102588127D01*
X145779286Y-102588127D02*
X145839762Y-102709080D01*
X145839762Y-102709080D02*
X145839762Y-103374318D01*
X146444524Y-103374318D02*
X146444524Y-102527651D01*
X146444524Y-102648603D02*
X146505001Y-102588127D01*
X146505001Y-102588127D02*
X146625953Y-102527651D01*
X146625953Y-102527651D02*
X146807382Y-102527651D01*
X146807382Y-102527651D02*
X146928334Y-102588127D01*
X146928334Y-102588127D02*
X146988810Y-102709080D01*
X146988810Y-102709080D02*
X146988810Y-103374318D01*
X146988810Y-102709080D02*
X147049286Y-102588127D01*
X147049286Y-102588127D02*
X147170239Y-102527651D01*
X147170239Y-102527651D02*
X147351667Y-102527651D01*
X147351667Y-102527651D02*
X147472620Y-102588127D01*
X147472620Y-102588127D02*
X147533096Y-102709080D01*
X147533096Y-102709080D02*
X147533096Y-103374318D01*
D10*
%TO.C,420nm*%
X145000000Y-97190000D02*
X145000000Y-97190000D01*
X145000000Y-97290000D02*
X145000000Y-97290000D01*
X145000000Y-97190000D02*
G75*
G02*
X145000000Y-97290000I0J-50000D01*
G01*
X145000000Y-97290000D02*
G75*
G02*
X145000000Y-97190000I0J50000D01*
G01*
%TD*%
D12*
X143400000Y-94800000D03*
X145900000Y-94800000D03*
M02*
