%TF.GenerationSoftware,KiCad,Pcbnew,8.0.6*%
%TF.CreationDate,2025-02-04T12:54:07+00:00*%
%TF.ProjectId,PCB,5043422e-6b69-4636-9164-5f7063625858,rev?*%
%TF.SameCoordinates,Original*%
%TF.FileFunction,Legend,Top*%
%TF.FilePolarity,Positive*%
%FSLAX46Y46*%
G04 Gerber Fmt 4.6, Leading zero omitted, Abs format (unit mm)*
G04 Created by KiCad (PCBNEW 8.0.6) date 2025-02-04 12:54:07*
%MOMM*%
%LPD*%
G01*
G04 APERTURE LIST*
%ADD10C,0.100000*%
%ADD11C,0.254000*%
%ADD12C,0.350000*%
G04 APERTURE END LIST*
D10*
X158603884Y-96791466D02*
X159365789Y-96791466D01*
X158984836Y-97172419D02*
X158984836Y-96410514D01*
D11*
X151871666Y-106004318D02*
X151266904Y-106004318D01*
X151266904Y-106004318D02*
X151206428Y-106609080D01*
X151206428Y-106609080D02*
X151266904Y-106548603D01*
X151266904Y-106548603D02*
X151387857Y-106488127D01*
X151387857Y-106488127D02*
X151690238Y-106488127D01*
X151690238Y-106488127D02*
X151811190Y-106548603D01*
X151811190Y-106548603D02*
X151871666Y-106609080D01*
X151871666Y-106609080D02*
X151932143Y-106730032D01*
X151932143Y-106730032D02*
X151932143Y-107032413D01*
X151932143Y-107032413D02*
X151871666Y-107153365D01*
X151871666Y-107153365D02*
X151811190Y-107213842D01*
X151811190Y-107213842D02*
X151690238Y-107274318D01*
X151690238Y-107274318D02*
X151387857Y-107274318D01*
X151387857Y-107274318D02*
X151266904Y-107213842D01*
X151266904Y-107213842D02*
X151206428Y-107153365D01*
X152536905Y-107274318D02*
X152778809Y-107274318D01*
X152778809Y-107274318D02*
X152899762Y-107213842D01*
X152899762Y-107213842D02*
X152960238Y-107153365D01*
X152960238Y-107153365D02*
X153081190Y-106971937D01*
X153081190Y-106971937D02*
X153141667Y-106730032D01*
X153141667Y-106730032D02*
X153141667Y-106246222D01*
X153141667Y-106246222D02*
X153081190Y-106125270D01*
X153081190Y-106125270D02*
X153020714Y-106064794D01*
X153020714Y-106064794D02*
X152899762Y-106004318D01*
X152899762Y-106004318D02*
X152657857Y-106004318D01*
X152657857Y-106004318D02*
X152536905Y-106064794D01*
X152536905Y-106064794D02*
X152476428Y-106125270D01*
X152476428Y-106125270D02*
X152415952Y-106246222D01*
X152415952Y-106246222D02*
X152415952Y-106548603D01*
X152415952Y-106548603D02*
X152476428Y-106669556D01*
X152476428Y-106669556D02*
X152536905Y-106730032D01*
X152536905Y-106730032D02*
X152657857Y-106790508D01*
X152657857Y-106790508D02*
X152899762Y-106790508D01*
X152899762Y-106790508D02*
X153020714Y-106730032D01*
X153020714Y-106730032D02*
X153081190Y-106669556D01*
X153081190Y-106669556D02*
X153141667Y-106548603D01*
X153927857Y-106004318D02*
X154048810Y-106004318D01*
X154048810Y-106004318D02*
X154169762Y-106064794D01*
X154169762Y-106064794D02*
X154230238Y-106125270D01*
X154230238Y-106125270D02*
X154290714Y-106246222D01*
X154290714Y-106246222D02*
X154351191Y-106488127D01*
X154351191Y-106488127D02*
X154351191Y-106790508D01*
X154351191Y-106790508D02*
X154290714Y-107032413D01*
X154290714Y-107032413D02*
X154230238Y-107153365D01*
X154230238Y-107153365D02*
X154169762Y-107213842D01*
X154169762Y-107213842D02*
X154048810Y-107274318D01*
X154048810Y-107274318D02*
X153927857Y-107274318D01*
X153927857Y-107274318D02*
X153806905Y-107213842D01*
X153806905Y-107213842D02*
X153746429Y-107153365D01*
X153746429Y-107153365D02*
X153685952Y-107032413D01*
X153685952Y-107032413D02*
X153625476Y-106790508D01*
X153625476Y-106790508D02*
X153625476Y-106488127D01*
X153625476Y-106488127D02*
X153685952Y-106246222D01*
X153685952Y-106246222D02*
X153746429Y-106125270D01*
X153746429Y-106125270D02*
X153806905Y-106064794D01*
X153806905Y-106064794D02*
X153927857Y-106004318D01*
X154895476Y-106427651D02*
X154895476Y-107274318D01*
X154895476Y-106548603D02*
X154955953Y-106488127D01*
X154955953Y-106488127D02*
X155076905Y-106427651D01*
X155076905Y-106427651D02*
X155258334Y-106427651D01*
X155258334Y-106427651D02*
X155379286Y-106488127D01*
X155379286Y-106488127D02*
X155439762Y-106609080D01*
X155439762Y-106609080D02*
X155439762Y-107274318D01*
X156044524Y-107274318D02*
X156044524Y-106427651D01*
X156044524Y-106548603D02*
X156105001Y-106488127D01*
X156105001Y-106488127D02*
X156225953Y-106427651D01*
X156225953Y-106427651D02*
X156407382Y-106427651D01*
X156407382Y-106427651D02*
X156528334Y-106488127D01*
X156528334Y-106488127D02*
X156588810Y-106609080D01*
X156588810Y-106609080D02*
X156588810Y-107274318D01*
X156588810Y-106609080D02*
X156649286Y-106488127D01*
X156649286Y-106488127D02*
X156770239Y-106427651D01*
X156770239Y-106427651D02*
X156951667Y-106427651D01*
X156951667Y-106427651D02*
X157072620Y-106488127D01*
X157072620Y-106488127D02*
X157133096Y-106609080D01*
X157133096Y-106609080D02*
X157133096Y-107274318D01*
D10*
%TO.C,590nm*%
X153500000Y-101370000D02*
X153500000Y-101370000D01*
X153600000Y-101370000D02*
X153600000Y-101370000D01*
X153500000Y-101370000D02*
G75*
G02*
X153600000Y-101370000I50000J0D01*
G01*
X153600000Y-101370000D02*
G75*
G02*
X153500000Y-101370000I-50000J0D01*
G01*
%TD*%
D12*
X152800000Y-96800000D03*
X155300000Y-96800000D03*
M02*
