%TF.GenerationSoftware,KiCad,Pcbnew,7.0.6*%
%TF.CreationDate,2023-12-12T11:09:34+00:00*%
%TF.ProjectId,led_holder,6c65645f-686f-46c6-9465-722e6b696361,rev?*%
%TF.SameCoordinates,Original*%
%TF.FileFunction,Copper,L1,Top*%
%TF.FilePolarity,Positive*%
%FSLAX46Y46*%
G04 Gerber Fmt 4.6, Leading zero omitted, Abs format (unit mm)*
G04 Created by KiCad (PCBNEW 7.0.6) date 2023-12-12 11:09:34*
%MOMM*%
%LPD*%
G01*
G04 APERTURE LIST*
G04 Aperture macros list*
%AMRoundRect*
0 Rectangle with rounded corners*
0 $1 Rounding radius*
0 $2 $3 $4 $5 $6 $7 $8 $9 X,Y pos of 4 corners*
0 Add a 4 corners polygon primitive as box body*
4,1,4,$2,$3,$4,$5,$6,$7,$8,$9,$2,$3,0*
0 Add four circle primitives for the rounded corners*
1,1,$1+$1,$2,$3*
1,1,$1+$1,$4,$5*
1,1,$1+$1,$6,$7*
1,1,$1+$1,$8,$9*
0 Add four rect primitives between the rounded corners*
20,1,$1+$1,$2,$3,$4,$5,0*
20,1,$1+$1,$4,$5,$6,$7,0*
20,1,$1+$1,$6,$7,$8,$9,0*
20,1,$1+$1,$8,$9,$2,$3,0*%
G04 Aperture macros list end*
%ADD10C,0.300000*%
%TA.AperFunction,NonConductor*%
%ADD11C,0.300000*%
%TD*%
%TA.AperFunction,ComponentPad*%
%ADD12RoundRect,0.250000X-0.750000X0.600000X-0.750000X-0.600000X0.750000X-0.600000X0.750000X0.600000X0*%
%TD*%
%TA.AperFunction,ComponentPad*%
%ADD13O,2.000000X1.700000*%
%TD*%
%TA.AperFunction,SMDPad,CuDef*%
%ADD14R,3.300000X0.500000*%
%TD*%
%TA.AperFunction,SMDPad,CuDef*%
%ADD15R,3.300000X1.300000*%
%TD*%
%TA.AperFunction,Conductor*%
%ADD16C,0.500000*%
%TD*%
G04 APERTURE END LIST*
D10*
D11*
X182429400Y-65845489D02*
X182429400Y-64702632D01*
D10*
D11*
X182329400Y-75145489D02*
X182329400Y-74002632D01*
D10*
D11*
X167754510Y-70129400D02*
X168897368Y-70129400D01*
X168325939Y-70700828D02*
X168325939Y-69557971D01*
D10*
D11*
X157454510Y-69629400D02*
X158597368Y-69629400D01*
X158025939Y-70200828D02*
X158025939Y-69057971D01*
D10*
D11*
X157554510Y-74929400D02*
X158697368Y-74929400D01*
D10*
D11*
X165554510Y-74629400D02*
X166697368Y-74629400D01*
D10*
D11*
X168254510Y-62529400D02*
X169397368Y-62529400D01*
X168825939Y-63100828D02*
X168825939Y-61957971D01*
D10*
D11*
X157454510Y-66429400D02*
X158597368Y-66429400D01*
D10*
D11*
X182354510Y-71929400D02*
X183497368Y-71929400D01*
X182925939Y-72500828D02*
X182925939Y-71357971D01*
D10*
D11*
X181854510Y-62529400D02*
X182997368Y-62529400D01*
X182425939Y-63100828D02*
X182425939Y-61957971D01*
D10*
D11*
X156554510Y-61229400D02*
X157697368Y-61229400D01*
X157125939Y-61800828D02*
X157125939Y-60657971D01*
D12*
%TO.P,J2,1,Pin_1*%
%TO.N,Net-(D3-A)*%
X179000000Y-72000000D03*
D13*
%TO.P,J2,2,Pin_2*%
%TO.N,Net-(D4-K)*%
X179000000Y-74500000D03*
%TD*%
%TO.P,J1,2,Pin_2*%
%TO.N,Net-(D2-K)*%
X179000000Y-65000000D03*
D12*
%TO.P,J1,1,Pin_1*%
%TO.N,Net-(D1-A)*%
X179000000Y-62500000D03*
%TD*%
D14*
%TO.P,D4,1,K*%
%TO.N,Net-(D4-K)*%
X166000000Y-73800000D03*
%TO.P,D4,2,A*%
%TO.N,Net-(D3-K)*%
X166000000Y-71000000D03*
D15*
%TO.P,D4,3*%
%TO.N,N/C*%
X166000000Y-72400000D03*
%TD*%
D14*
%TO.P,D3,1,K*%
%TO.N,Net-(D3-K)*%
X158000000Y-73800000D03*
%TO.P,D3,2,A*%
%TO.N,Net-(D3-A)*%
X158000000Y-71000000D03*
D15*
%TO.P,D3,3*%
%TO.N,N/C*%
X158000000Y-72400000D03*
%TD*%
D14*
%TO.P,D2,1,K*%
%TO.N,Net-(D2-K)*%
X166000000Y-65400000D03*
%TO.P,D2,2,A*%
%TO.N,Net-(D1-K)*%
X166000000Y-62600000D03*
D15*
%TO.P,D2,3*%
%TO.N,N/C*%
X166000000Y-64000000D03*
%TD*%
%TO.P,D1,3*%
%TO.N,N/C*%
X158000000Y-64000000D03*
D14*
%TO.P,D1,2,A*%
%TO.N,Net-(D1-A)*%
X158000000Y-62600000D03*
%TO.P,D1,1,K*%
%TO.N,Net-(D1-K)*%
X158000000Y-65400000D03*
%TD*%
D16*
%TO.N,Net-(D4-K)*%
X178300000Y-73800000D02*
X179000000Y-74500000D01*
X166000000Y-73800000D02*
X178300000Y-73800000D01*
%TO.N,Net-(D3-K)*%
X160200000Y-73800000D02*
X163000000Y-71000000D01*
X158000000Y-73800000D02*
X160200000Y-73800000D01*
X163000000Y-71000000D02*
X166000000Y-71000000D01*
%TO.N,Net-(D3-A)*%
X160000000Y-71000000D02*
X158000000Y-71000000D01*
X162000000Y-69000000D02*
X160000000Y-71000000D01*
X179000000Y-72000000D02*
X176000000Y-69000000D01*
X176000000Y-69000000D02*
X162000000Y-69000000D01*
%TO.N,Net-(D2-K)*%
X178600000Y-65400000D02*
X179000000Y-65000000D01*
X166000000Y-65400000D02*
X178600000Y-65400000D01*
%TO.N,Net-(D1-K)*%
X163400000Y-62600000D02*
X166000000Y-62600000D01*
X160600000Y-65400000D02*
X163400000Y-62600000D01*
X158000000Y-65400000D02*
X160600000Y-65400000D01*
%TO.N,Net-(D1-A)*%
X174000000Y-61000000D02*
X159600000Y-61000000D01*
X175500000Y-62500000D02*
X174000000Y-61000000D01*
X159600000Y-61000000D02*
X158000000Y-62600000D01*
X179000000Y-62500000D02*
X175500000Y-62500000D01*
%TD*%
M02*
