%TF.GenerationSoftware,KiCad,Pcbnew,7.0.6*%
%TF.CreationDate,2023-12-12T11:09:34+00:00*%
%TF.ProjectId,led_holder,6c65645f-686f-46c6-9465-722e6b696361,rev?*%
%TF.SameCoordinates,Original*%
%TF.FileFunction,Legend,Top*%
%TF.FilePolarity,Positive*%
%FSLAX46Y46*%
G04 Gerber Fmt 4.6, Leading zero omitted, Abs format (unit mm)*
G04 Created by KiCad (PCBNEW 7.0.6) date 2023-12-12 11:09:34*
%MOMM*%
%LPD*%
G01*
G04 APERTURE LIST*
%ADD10C,0.150000*%
%ADD11C,0.120000*%
G04 APERTURE END LIST*
D10*
X182004819Y-73583333D02*
X182719104Y-73583333D01*
X182719104Y-73583333D02*
X182861961Y-73630952D01*
X182861961Y-73630952D02*
X182957200Y-73726190D01*
X182957200Y-73726190D02*
X183004819Y-73869047D01*
X183004819Y-73869047D02*
X183004819Y-73964285D01*
X182100057Y-73154761D02*
X182052438Y-73107142D01*
X182052438Y-73107142D02*
X182004819Y-73011904D01*
X182004819Y-73011904D02*
X182004819Y-72773809D01*
X182004819Y-72773809D02*
X182052438Y-72678571D01*
X182052438Y-72678571D02*
X182100057Y-72630952D01*
X182100057Y-72630952D02*
X182195295Y-72583333D01*
X182195295Y-72583333D02*
X182290533Y-72583333D01*
X182290533Y-72583333D02*
X182433390Y-72630952D01*
X182433390Y-72630952D02*
X183004819Y-73202380D01*
X183004819Y-73202380D02*
X183004819Y-72583333D01*
X182004819Y-64083333D02*
X182719104Y-64083333D01*
X182719104Y-64083333D02*
X182861961Y-64130952D01*
X182861961Y-64130952D02*
X182957200Y-64226190D01*
X182957200Y-64226190D02*
X183004819Y-64369047D01*
X183004819Y-64369047D02*
X183004819Y-64464285D01*
X183004819Y-63083333D02*
X183004819Y-63654761D01*
X183004819Y-63369047D02*
X182004819Y-63369047D01*
X182004819Y-63369047D02*
X182147676Y-63464285D01*
X182147676Y-63464285D02*
X182242914Y-63559523D01*
X182242914Y-63559523D02*
X182290533Y-63654761D01*
X163704819Y-73138094D02*
X162704819Y-73138094D01*
X162704819Y-73138094D02*
X162704819Y-72899999D01*
X162704819Y-72899999D02*
X162752438Y-72757142D01*
X162752438Y-72757142D02*
X162847676Y-72661904D01*
X162847676Y-72661904D02*
X162942914Y-72614285D01*
X162942914Y-72614285D02*
X163133390Y-72566666D01*
X163133390Y-72566666D02*
X163276247Y-72566666D01*
X163276247Y-72566666D02*
X163466723Y-72614285D01*
X163466723Y-72614285D02*
X163561961Y-72661904D01*
X163561961Y-72661904D02*
X163657200Y-72757142D01*
X163657200Y-72757142D02*
X163704819Y-72899999D01*
X163704819Y-72899999D02*
X163704819Y-73138094D01*
X163038152Y-71709523D02*
X163704819Y-71709523D01*
X162657200Y-71947618D02*
X163371485Y-72185713D01*
X163371485Y-72185713D02*
X163371485Y-71566666D01*
X155704819Y-73138094D02*
X154704819Y-73138094D01*
X154704819Y-73138094D02*
X154704819Y-72899999D01*
X154704819Y-72899999D02*
X154752438Y-72757142D01*
X154752438Y-72757142D02*
X154847676Y-72661904D01*
X154847676Y-72661904D02*
X154942914Y-72614285D01*
X154942914Y-72614285D02*
X155133390Y-72566666D01*
X155133390Y-72566666D02*
X155276247Y-72566666D01*
X155276247Y-72566666D02*
X155466723Y-72614285D01*
X155466723Y-72614285D02*
X155561961Y-72661904D01*
X155561961Y-72661904D02*
X155657200Y-72757142D01*
X155657200Y-72757142D02*
X155704819Y-72899999D01*
X155704819Y-72899999D02*
X155704819Y-73138094D01*
X154704819Y-72233332D02*
X154704819Y-71614285D01*
X154704819Y-71614285D02*
X155085771Y-71947618D01*
X155085771Y-71947618D02*
X155085771Y-71804761D01*
X155085771Y-71804761D02*
X155133390Y-71709523D01*
X155133390Y-71709523D02*
X155181009Y-71661904D01*
X155181009Y-71661904D02*
X155276247Y-71614285D01*
X155276247Y-71614285D02*
X155514342Y-71614285D01*
X155514342Y-71614285D02*
X155609580Y-71661904D01*
X155609580Y-71661904D02*
X155657200Y-71709523D01*
X155657200Y-71709523D02*
X155704819Y-71804761D01*
X155704819Y-71804761D02*
X155704819Y-72090475D01*
X155704819Y-72090475D02*
X155657200Y-72185713D01*
X155657200Y-72185713D02*
X155609580Y-72233332D01*
X163704819Y-64738094D02*
X162704819Y-64738094D01*
X162704819Y-64738094D02*
X162704819Y-64499999D01*
X162704819Y-64499999D02*
X162752438Y-64357142D01*
X162752438Y-64357142D02*
X162847676Y-64261904D01*
X162847676Y-64261904D02*
X162942914Y-64214285D01*
X162942914Y-64214285D02*
X163133390Y-64166666D01*
X163133390Y-64166666D02*
X163276247Y-64166666D01*
X163276247Y-64166666D02*
X163466723Y-64214285D01*
X163466723Y-64214285D02*
X163561961Y-64261904D01*
X163561961Y-64261904D02*
X163657200Y-64357142D01*
X163657200Y-64357142D02*
X163704819Y-64499999D01*
X163704819Y-64499999D02*
X163704819Y-64738094D01*
X162800057Y-63785713D02*
X162752438Y-63738094D01*
X162752438Y-63738094D02*
X162704819Y-63642856D01*
X162704819Y-63642856D02*
X162704819Y-63404761D01*
X162704819Y-63404761D02*
X162752438Y-63309523D01*
X162752438Y-63309523D02*
X162800057Y-63261904D01*
X162800057Y-63261904D02*
X162895295Y-63214285D01*
X162895295Y-63214285D02*
X162990533Y-63214285D01*
X162990533Y-63214285D02*
X163133390Y-63261904D01*
X163133390Y-63261904D02*
X163704819Y-63833332D01*
X163704819Y-63833332D02*
X163704819Y-63214285D01*
X155704819Y-64738094D02*
X154704819Y-64738094D01*
X154704819Y-64738094D02*
X154704819Y-64499999D01*
X154704819Y-64499999D02*
X154752438Y-64357142D01*
X154752438Y-64357142D02*
X154847676Y-64261904D01*
X154847676Y-64261904D02*
X154942914Y-64214285D01*
X154942914Y-64214285D02*
X155133390Y-64166666D01*
X155133390Y-64166666D02*
X155276247Y-64166666D01*
X155276247Y-64166666D02*
X155466723Y-64214285D01*
X155466723Y-64214285D02*
X155561961Y-64261904D01*
X155561961Y-64261904D02*
X155657200Y-64357142D01*
X155657200Y-64357142D02*
X155704819Y-64499999D01*
X155704819Y-64499999D02*
X155704819Y-64738094D01*
X155704819Y-63214285D02*
X155704819Y-63785713D01*
X155704819Y-63499999D02*
X154704819Y-63499999D01*
X154704819Y-63499999D02*
X154847676Y-63595237D01*
X154847676Y-63595237D02*
X154942914Y-63690475D01*
X154942914Y-63690475D02*
X154990533Y-63785713D01*
D11*
%TO.C,J2*%
X179200000Y-77050000D02*
X179200000Y-76300000D01*
X179200000Y-76300000D02*
X176250000Y-76300000D01*
X176250000Y-76300000D02*
X176250000Y-73250000D01*
X179200000Y-70200000D02*
X176250000Y-70200000D01*
X181450000Y-73750000D02*
X181450000Y-72750000D01*
X181450000Y-72750000D02*
X180700000Y-72750000D01*
X180700000Y-72750000D02*
X180700000Y-73750000D01*
X180700000Y-75250000D02*
X180700000Y-77050000D01*
X181450000Y-77050000D02*
X181450000Y-75250000D01*
X181750000Y-69150000D02*
X180500000Y-69150000D01*
X181460000Y-69440000D02*
X175490000Y-69440000D01*
X181450000Y-69450000D02*
X180700000Y-69450000D01*
X175490000Y-69440000D02*
X175490000Y-77060000D01*
X180700000Y-73750000D02*
X181450000Y-73750000D01*
X179200000Y-69450000D02*
X179200000Y-70200000D01*
X180700000Y-69450000D02*
X180700000Y-71250000D01*
X181750000Y-70400000D02*
X181750000Y-69150000D01*
X180700000Y-77050000D02*
X181450000Y-77050000D01*
X181450000Y-71250000D02*
X181450000Y-69450000D01*
X181460000Y-77060000D02*
X181460000Y-69440000D01*
X176250000Y-70200000D02*
X176250000Y-73250000D01*
X181450000Y-75250000D02*
X180700000Y-75250000D01*
X175490000Y-77060000D02*
X181460000Y-77060000D01*
X180700000Y-71250000D02*
X181450000Y-71250000D01*
%TO.C,J1*%
X180700000Y-61750000D02*
X181450000Y-61750000D01*
X175490000Y-67560000D02*
X181460000Y-67560000D01*
X181450000Y-65750000D02*
X180700000Y-65750000D01*
X176250000Y-60700000D02*
X176250000Y-63750000D01*
X181460000Y-67560000D02*
X181460000Y-59940000D01*
X181450000Y-61750000D02*
X181450000Y-59950000D01*
X180700000Y-67550000D02*
X181450000Y-67550000D01*
X181750000Y-60900000D02*
X181750000Y-59650000D01*
X180700000Y-59950000D02*
X180700000Y-61750000D01*
X179200000Y-59950000D02*
X179200000Y-60700000D01*
X180700000Y-64250000D02*
X181450000Y-64250000D01*
X175490000Y-59940000D02*
X175490000Y-67560000D01*
X181450000Y-59950000D02*
X180700000Y-59950000D01*
X181460000Y-59940000D02*
X175490000Y-59940000D01*
X181750000Y-59650000D02*
X180500000Y-59650000D01*
X181450000Y-67550000D02*
X181450000Y-65750000D01*
X180700000Y-65750000D02*
X180700000Y-67550000D01*
X180700000Y-63250000D02*
X180700000Y-64250000D01*
X181450000Y-63250000D02*
X180700000Y-63250000D01*
X181450000Y-64250000D02*
X181450000Y-63250000D01*
X179200000Y-60700000D02*
X176250000Y-60700000D01*
X176250000Y-66800000D02*
X176250000Y-63750000D01*
X179200000Y-66800000D02*
X176250000Y-66800000D01*
X179200000Y-67550000D02*
X179200000Y-66800000D01*
%TO.C,D4*%
X164150000Y-71650000D02*
X164150000Y-74250000D01*
X167850000Y-74250000D02*
X166850000Y-74250000D01*
X164150000Y-74250000D02*
X165150000Y-74250000D01*
X167850000Y-71650000D02*
X167850000Y-74250000D01*
%TO.C,D3*%
X156150000Y-71650000D02*
X156150000Y-74250000D01*
X159850000Y-74250000D02*
X158850000Y-74250000D01*
X156150000Y-74250000D02*
X157150000Y-74250000D01*
X159850000Y-71650000D02*
X159850000Y-74250000D01*
%TO.C,D2*%
X164150000Y-63250000D02*
X164150000Y-65850000D01*
X167850000Y-65850000D02*
X166850000Y-65850000D01*
X164150000Y-65850000D02*
X165150000Y-65850000D01*
X167850000Y-63250000D02*
X167850000Y-65850000D01*
%TO.C,D1*%
X159850000Y-63250000D02*
X159850000Y-65850000D01*
X156150000Y-65850000D02*
X157150000Y-65850000D01*
X159850000Y-65850000D02*
X158850000Y-65850000D01*
X156150000Y-63250000D02*
X156150000Y-65850000D01*
%TD*%
M02*
