%TF.GenerationSoftware,KiCad,Pcbnew,7.0.6*%
%TF.CreationDate,2023-12-12T11:09:35+00:00*%
%TF.ProjectId,led_holder,6c65645f-686f-46c6-9465-722e6b696361,rev?*%
%TF.SameCoordinates,Original*%
%TF.FileFunction,Other,User*%
%FSLAX46Y46*%
G04 Gerber Fmt 4.6, Leading zero omitted, Abs format (unit mm)*
G04 Created by KiCad (PCBNEW 7.0.6) date 2023-12-12 11:09:35*
%MOMM*%
%LPD*%
G01*
G04 APERTURE LIST*
%ADD10C,0.050000*%
G04 APERTURE END LIST*
D10*
%TO.C,J2*%
X181850000Y-77450000D02*
X181850000Y-69050000D01*
X175100000Y-69050000D02*
X175100000Y-77450000D01*
X175100000Y-77450000D02*
X181850000Y-77450000D01*
X181850000Y-69050000D02*
X175100000Y-69050000D01*
%TO.C,J1*%
X181850000Y-59550000D02*
X175100000Y-59550000D01*
X175100000Y-67950000D02*
X181850000Y-67950000D01*
X175100000Y-59550000D02*
X175100000Y-67950000D01*
X181850000Y-67950000D02*
X181850000Y-59550000D01*
%TO.C,D4*%
X164100000Y-70500000D02*
X164100000Y-74300000D01*
X167900000Y-70500000D02*
X164100000Y-70500000D01*
X167900000Y-74300000D02*
X167900000Y-70500000D01*
X164100000Y-74300000D02*
X167900000Y-74300000D01*
%TO.C,D3*%
X156100000Y-70500000D02*
X156100000Y-74300000D01*
X159900000Y-70500000D02*
X156100000Y-70500000D01*
X159900000Y-74300000D02*
X159900000Y-70500000D01*
X156100000Y-74300000D02*
X159900000Y-74300000D01*
%TO.C,D2*%
X164100000Y-62100000D02*
X164100000Y-65900000D01*
X167900000Y-62100000D02*
X164100000Y-62100000D01*
X167900000Y-65900000D02*
X167900000Y-62100000D01*
X164100000Y-65900000D02*
X167900000Y-65900000D01*
%TO.C,D1*%
X156100000Y-65900000D02*
X159900000Y-65900000D01*
X159900000Y-65900000D02*
X159900000Y-62100000D01*
X159900000Y-62100000D02*
X156100000Y-62100000D01*
X156100000Y-62100000D02*
X156100000Y-65900000D01*
%TD*%
M02*
