%TF.GenerationSoftware,KiCad,Pcbnew,8.0.6*%
%TF.CreationDate,2025-02-04T12:38:30+00:00*%
%TF.ProjectId,single_led,73696e67-6c65-45f6-9c65-642e6b696361,rev?*%
%TF.SameCoordinates,Original*%
%TF.FileFunction,Legend,Bot*%
%TF.FilePolarity,Positive*%
%FSLAX46Y46*%
G04 Gerber Fmt 4.6, Leading zero omitted, Abs format (unit mm)*
G04 Created by KiCad (PCBNEW 8.0.6) date 2025-02-04 12:38:30*
%MOMM*%
%LPD*%
G01*
G04 APERTURE LIST*
%ADD10C,0.150000*%
%ADD11C,0.120000*%
%ADD12C,0.350000*%
G04 APERTURE END LIST*
D10*
X132983333Y-83904819D02*
X132983333Y-84619104D01*
X132983333Y-84619104D02*
X133030952Y-84761961D01*
X133030952Y-84761961D02*
X133126190Y-84857200D01*
X133126190Y-84857200D02*
X133269047Y-84904819D01*
X133269047Y-84904819D02*
X133364285Y-84904819D01*
X131983333Y-84904819D02*
X132554761Y-84904819D01*
X132269047Y-84904819D02*
X132269047Y-83904819D01*
X132269047Y-83904819D02*
X132364285Y-84047676D01*
X132364285Y-84047676D02*
X132459523Y-84142914D01*
X132459523Y-84142914D02*
X132554761Y-84190533D01*
D11*
%TO.C,J1*%
X128840000Y-85540000D02*
X128840000Y-91510000D01*
X128840000Y-91510000D02*
X136460000Y-91510000D01*
X128850000Y-85550000D02*
X128850000Y-86300000D01*
X128850000Y-86300000D02*
X130650000Y-86300000D01*
X129600000Y-87800000D02*
X128850000Y-87800000D01*
X129600000Y-90750000D02*
X129600000Y-87800000D01*
X130650000Y-85550000D02*
X128850000Y-85550000D01*
X130650000Y-86300000D02*
X130650000Y-85550000D01*
X132150000Y-85550000D02*
X132150000Y-86300000D01*
X132150000Y-86300000D02*
X133150000Y-86300000D01*
X132650000Y-90750000D02*
X129600000Y-90750000D01*
X132650000Y-90750000D02*
X135700000Y-90750000D01*
X133150000Y-85550000D02*
X132150000Y-85550000D01*
X133150000Y-86300000D02*
X133150000Y-85550000D01*
X134650000Y-85550000D02*
X134650000Y-86300000D01*
X134650000Y-86300000D02*
X136450000Y-86300000D01*
X135700000Y-87800000D02*
X136450000Y-87800000D01*
X135700000Y-90750000D02*
X135700000Y-87800000D01*
X136450000Y-85550000D02*
X134650000Y-85550000D01*
X136450000Y-86300000D02*
X136450000Y-85550000D01*
X136460000Y-85540000D02*
X128840000Y-85540000D01*
X136460000Y-91510000D02*
X136460000Y-85540000D01*
X136750000Y-85250000D02*
X135500000Y-85250000D01*
X136750000Y-86500000D02*
X136750000Y-85250000D01*
%TD*%
D12*
X133900000Y-88000000D03*
X131400000Y-88000000D03*
M02*
