%TF.GenerationSoftware,KiCad,Pcbnew,8.0.6*%
%TF.CreationDate,2025-02-04T12:38:30+00:00*%
%TF.ProjectId,single_led,73696e67-6c65-45f6-9c65-642e6b696361,rev?*%
%TF.SameCoordinates,Original*%
%TF.FileFunction,Legend,Top*%
%TF.FilePolarity,Positive*%
%FSLAX46Y46*%
G04 Gerber Fmt 4.6, Leading zero omitted, Abs format (unit mm)*
G04 Created by KiCad (PCBNEW 8.0.6) date 2025-02-04 12:38:30*
%MOMM*%
%LPD*%
G01*
G04 APERTURE LIST*
%ADD10C,0.100000*%
%ADD11C,0.254000*%
%ADD12C,0.350000*%
G04 APERTURE END LIST*
D10*
X137103884Y-87791466D02*
X137865789Y-87791466D01*
X137484836Y-88172419D02*
X137484836Y-87410514D01*
D11*
X130111190Y-97727651D02*
X130111190Y-98574318D01*
X129808809Y-97243842D02*
X129506428Y-98150984D01*
X129506428Y-98150984D02*
X130292619Y-98150984D01*
X130836905Y-98574318D02*
X131078809Y-98574318D01*
X131078809Y-98574318D02*
X131199762Y-98513842D01*
X131199762Y-98513842D02*
X131260238Y-98453365D01*
X131260238Y-98453365D02*
X131381190Y-98271937D01*
X131381190Y-98271937D02*
X131441667Y-98030032D01*
X131441667Y-98030032D02*
X131441667Y-97546222D01*
X131441667Y-97546222D02*
X131381190Y-97425270D01*
X131381190Y-97425270D02*
X131320714Y-97364794D01*
X131320714Y-97364794D02*
X131199762Y-97304318D01*
X131199762Y-97304318D02*
X130957857Y-97304318D01*
X130957857Y-97304318D02*
X130836905Y-97364794D01*
X130836905Y-97364794D02*
X130776428Y-97425270D01*
X130776428Y-97425270D02*
X130715952Y-97546222D01*
X130715952Y-97546222D02*
X130715952Y-97848603D01*
X130715952Y-97848603D02*
X130776428Y-97969556D01*
X130776428Y-97969556D02*
X130836905Y-98030032D01*
X130836905Y-98030032D02*
X130957857Y-98090508D01*
X130957857Y-98090508D02*
X131199762Y-98090508D01*
X131199762Y-98090508D02*
X131320714Y-98030032D01*
X131320714Y-98030032D02*
X131381190Y-97969556D01*
X131381190Y-97969556D02*
X131441667Y-97848603D01*
X132227857Y-97304318D02*
X132348810Y-97304318D01*
X132348810Y-97304318D02*
X132469762Y-97364794D01*
X132469762Y-97364794D02*
X132530238Y-97425270D01*
X132530238Y-97425270D02*
X132590714Y-97546222D01*
X132590714Y-97546222D02*
X132651191Y-97788127D01*
X132651191Y-97788127D02*
X132651191Y-98090508D01*
X132651191Y-98090508D02*
X132590714Y-98332413D01*
X132590714Y-98332413D02*
X132530238Y-98453365D01*
X132530238Y-98453365D02*
X132469762Y-98513842D01*
X132469762Y-98513842D02*
X132348810Y-98574318D01*
X132348810Y-98574318D02*
X132227857Y-98574318D01*
X132227857Y-98574318D02*
X132106905Y-98513842D01*
X132106905Y-98513842D02*
X132046429Y-98453365D01*
X132046429Y-98453365D02*
X131985952Y-98332413D01*
X131985952Y-98332413D02*
X131925476Y-98090508D01*
X131925476Y-98090508D02*
X131925476Y-97788127D01*
X131925476Y-97788127D02*
X131985952Y-97546222D01*
X131985952Y-97546222D02*
X132046429Y-97425270D01*
X132046429Y-97425270D02*
X132106905Y-97364794D01*
X132106905Y-97364794D02*
X132227857Y-97304318D01*
X133195476Y-97727651D02*
X133195476Y-98574318D01*
X133195476Y-97848603D02*
X133255953Y-97788127D01*
X133255953Y-97788127D02*
X133376905Y-97727651D01*
X133376905Y-97727651D02*
X133558334Y-97727651D01*
X133558334Y-97727651D02*
X133679286Y-97788127D01*
X133679286Y-97788127D02*
X133739762Y-97909080D01*
X133739762Y-97909080D02*
X133739762Y-98574318D01*
X134344524Y-98574318D02*
X134344524Y-97727651D01*
X134344524Y-97848603D02*
X134405001Y-97788127D01*
X134405001Y-97788127D02*
X134525953Y-97727651D01*
X134525953Y-97727651D02*
X134707382Y-97727651D01*
X134707382Y-97727651D02*
X134828334Y-97788127D01*
X134828334Y-97788127D02*
X134888810Y-97909080D01*
X134888810Y-97909080D02*
X134888810Y-98574318D01*
X134888810Y-97909080D02*
X134949286Y-97788127D01*
X134949286Y-97788127D02*
X135070239Y-97727651D01*
X135070239Y-97727651D02*
X135251667Y-97727651D01*
X135251667Y-97727651D02*
X135372620Y-97788127D01*
X135372620Y-97788127D02*
X135433096Y-97909080D01*
X135433096Y-97909080D02*
X135433096Y-98574318D01*
D10*
%TO.C,490nm*%
X134475000Y-93100000D02*
X134475000Y-93100000D01*
X134575000Y-93100000D02*
X134575000Y-93100000D01*
X134475000Y-93100000D02*
G75*
G02*
X134575000Y-93100000I50000J0D01*
G01*
X134575000Y-93100000D02*
G75*
G02*
X134475000Y-93100000I-50000J0D01*
G01*
%TD*%
D12*
X133900000Y-88000000D03*
X131400000Y-88000000D03*
M02*
