%TF.GenerationSoftware,KiCad,Pcbnew,8.0.6*%
%TF.CreationDate,2025-02-04T12:31:12+00:00*%
%TF.ProjectId,PCB,5043422e-6b69-4636-9164-5f7063625858,rev?*%
%TF.SameCoordinates,Original*%
%TF.FileFunction,Legend,Bot*%
%TF.FilePolarity,Positive*%
%FSLAX46Y46*%
G04 Gerber Fmt 4.6, Leading zero omitted, Abs format (unit mm)*
G04 Created by KiCad (PCBNEW 8.0.6) date 2025-02-04 12:31:12*
%MOMM*%
%LPD*%
G01*
G04 APERTURE LIST*
%ADD10C,0.150000*%
%ADD11C,0.120000*%
%ADD12C,0.350000*%
G04 APERTURE END LIST*
D10*
X144983333Y-97804819D02*
X144983333Y-98519104D01*
X144983333Y-98519104D02*
X145030952Y-98661961D01*
X145030952Y-98661961D02*
X145126190Y-98757200D01*
X145126190Y-98757200D02*
X145269047Y-98804819D01*
X145269047Y-98804819D02*
X145364285Y-98804819D01*
X143983333Y-98804819D02*
X144554761Y-98804819D01*
X144269047Y-98804819D02*
X144269047Y-97804819D01*
X144269047Y-97804819D02*
X144364285Y-97947676D01*
X144364285Y-97947676D02*
X144459523Y-98042914D01*
X144459523Y-98042914D02*
X144554761Y-98090533D01*
D11*
%TO.C,J1*%
X140550000Y-96300000D02*
X140550000Y-97550000D01*
X140840000Y-91290000D02*
X140840000Y-97260000D01*
X148460000Y-91290000D02*
X140840000Y-91290000D01*
X140850000Y-96500000D02*
X140850000Y-97250000D01*
X142650000Y-96500000D02*
X140850000Y-96500000D01*
X141600000Y-95000000D02*
X140850000Y-95000000D01*
X141600000Y-92050000D02*
X141600000Y-95000000D01*
X144650000Y-92050000D02*
X141600000Y-92050000D01*
X140550000Y-97550000D02*
X141800000Y-97550000D01*
X140850000Y-97250000D02*
X142650000Y-97250000D01*
X142650000Y-97250000D02*
X142650000Y-96500000D01*
X144150000Y-96500000D02*
X144150000Y-97250000D01*
X145150000Y-96500000D02*
X144150000Y-96500000D01*
X144150000Y-97250000D02*
X145150000Y-97250000D01*
X145150000Y-97250000D02*
X145150000Y-96500000D01*
X146650000Y-96500000D02*
X146650000Y-97250000D01*
X148450000Y-96500000D02*
X146650000Y-96500000D01*
X147700000Y-92050000D02*
X147700000Y-95000000D01*
X144650000Y-92050000D02*
X147700000Y-92050000D01*
X146650000Y-97250000D02*
X148450000Y-97250000D01*
X148450000Y-97250000D02*
X148450000Y-96500000D01*
X147700000Y-95000000D02*
X148450000Y-95000000D01*
X140840000Y-97260000D02*
X148460000Y-97260000D01*
X148460000Y-97260000D02*
X148460000Y-91290000D01*
%TD*%
D12*
X143400000Y-94800000D03*
X145900000Y-94800000D03*
M02*
