%TF.GenerationSoftware,KiCad,Pcbnew,8.0.6*%
%TF.CreationDate,2025-02-04T12:58:53+00:00*%
%TF.ProjectId,PCB,5043422e-6b69-4636-9164-5f7063625858,rev?*%
%TF.SameCoordinates,Original*%
%TF.FileFunction,Legend,Bot*%
%TF.FilePolarity,Positive*%
%FSLAX46Y46*%
G04 Gerber Fmt 4.6, Leading zero omitted, Abs format (unit mm)*
G04 Created by KiCad (PCBNEW 8.0.6) date 2025-02-04 12:58:53*
%MOMM*%
%LPD*%
G01*
G04 APERTURE LIST*
%ADD10C,0.150000*%
%ADD11C,0.120000*%
%ADD12C,0.350000*%
G04 APERTURE END LIST*
D10*
X147783333Y-89804819D02*
X147783333Y-90519104D01*
X147783333Y-90519104D02*
X147830952Y-90661961D01*
X147830952Y-90661961D02*
X147926190Y-90757200D01*
X147926190Y-90757200D02*
X148069047Y-90804819D01*
X148069047Y-90804819D02*
X148164285Y-90804819D01*
X146783333Y-90804819D02*
X147354761Y-90804819D01*
X147069047Y-90804819D02*
X147069047Y-89804819D01*
X147069047Y-89804819D02*
X147164285Y-89947676D01*
X147164285Y-89947676D02*
X147259523Y-90042914D01*
X147259523Y-90042914D02*
X147354761Y-90090533D01*
D11*
%TO.C,J1*%
X151550000Y-92400000D02*
X151550000Y-91150000D01*
X151260000Y-97410000D02*
X151260000Y-91440000D01*
X143640000Y-97410000D02*
X151260000Y-97410000D01*
X151250000Y-92200000D02*
X151250000Y-91450000D01*
X149450000Y-92200000D02*
X151250000Y-92200000D01*
X150500000Y-93700000D02*
X151250000Y-93700000D01*
X150500000Y-96650000D02*
X150500000Y-93700000D01*
X147450000Y-96650000D02*
X150500000Y-96650000D01*
X151550000Y-91150000D02*
X150300000Y-91150000D01*
X151250000Y-91450000D02*
X149450000Y-91450000D01*
X149450000Y-91450000D02*
X149450000Y-92200000D01*
X147950000Y-92200000D02*
X147950000Y-91450000D01*
X146950000Y-92200000D02*
X147950000Y-92200000D01*
X147950000Y-91450000D02*
X146950000Y-91450000D01*
X146950000Y-91450000D02*
X146950000Y-92200000D01*
X145450000Y-92200000D02*
X145450000Y-91450000D01*
X143650000Y-92200000D02*
X145450000Y-92200000D01*
X144400000Y-96650000D02*
X144400000Y-93700000D01*
X147450000Y-96650000D02*
X144400000Y-96650000D01*
X145450000Y-91450000D02*
X143650000Y-91450000D01*
X143650000Y-91450000D02*
X143650000Y-92200000D01*
X144400000Y-93700000D02*
X143650000Y-93700000D01*
X151260000Y-91440000D02*
X143640000Y-91440000D01*
X143640000Y-91440000D02*
X143640000Y-97410000D01*
%TD*%
D12*
X148700000Y-93900000D03*
X146200000Y-93900000D03*
M02*
